<?xml version="1.0" encoding="UTF-8"?>
<svg viewBox="0 0 80 80" xmlns="http://www.w3.org/2000/svg">
 <g transform="matrix(.96875 0 0 .98751 1.2501 -.25079)" fill="#3f7f00" fill-rule="evenodd" stroke-width=".312">
  <path d="m54.962 37.281l17.137-10.262 7.6785 14.835c1.8547 8.1052-8.3091 11.08-16.47 10.596l-8.3462-15.169z"/>
  <path d="m51.068 47.877l-9.0138 15.95 9.0138 16.173 0.2226-6.4693h8.2349c3.0046 0.26025 6.8995-1.7103 8.3462-4.5731l10.572-19.408c-3.4868 3.4577-7.9704 4.35-13.131 4.35h-13.91l-0.3339-6.0231z"/>
  <path d="m30.928 28.212l-17.269-10.037 9.2131-13.929c6.1698-5.5594 13.698 1.9035 17.237 9.2895l-9.1809 14.677z"/>
  <path d="m42.062 26.482l18.288 0.1571 9.7324-15.749-5.7511 2.9451-3.9971-7.2164c-1.2314-2.7593-4.8408-5.216-8.0402-5.0942l-22.061 0.156c4.7086 1.3773 7.6632 4.8732 10.168 9.3958l6.7518 12.19-5.0918 3.2161z"/>
  <path d="m0.444 27.381l5.3508 4.1012-5.0361 9.4644c-2.518 4.3641 1.8078 8.6156 4.5639 10.095 2.7133 1.4568 6.9246 1.63 10.859 1.5774l7.082-11.357 5.3508 2.8393-9.2852-16.878-18.885 0.1577z"/>
  <path d="m1.2309 49.307l11.488 20.822c2.3082 2.8919 6.6623 3.5754 11.174 3.4703h12.118v-19.718l-22.977-0.1577c-3.5672 0.21032-8.236-0.5258-11.803-4.4167z"/>
 </g>
</svg>
