<?xml version="1.0" encoding="UTF-8"?>
<svg viewBox="0 0 516.7832 528.74017" xmlns="http://www.w3.org/2000/svg" xmlns:xlink="http://www.w3.org/1999/xlink">
 <defs>
  <filter id="s">
   <feGaussianBlur stdDeviation=".23508"/>
  </filter>
  <filter id="r">
   <feGaussianBlur stdDeviation=".3556"/>
  </filter>
  <linearGradient id="h" x1="-21740" x2="-21741" y1="52.349" y2="46.68" gradientTransform="matrix(8.6826 1.207 -1.207 8.6826 1.8933e5 26162)" gradientUnits="userSpaceOnUse">
   <stop stop-color="#a30b0a" offset="0"/>
   <stop stop-color="#fff" offset="1"/>
  </linearGradient>
  <linearGradient id="a">
   <stop offset="0"/>
   <stop stop-opacity="0" offset="1"/>
  </linearGradient>
  <linearGradient id="b">
   <stop stop-color="#fff" offset="0"/>
   <stop stop-color="#fff" stop-opacity="0" offset="1"/>
  </linearGradient>
  <linearGradient id="k" x1="421.4" x2="362.99" y1="316.71" y2="292.34" gradientUnits="userSpaceOnUse">
   <stop stop-color="#7d0202" offset="0"/>
   <stop offset="1"/>
  </linearGradient>
  <linearGradient id="l" x1="439.4" x2="407.39" y1="305.8" y2="198.49" gradientUnits="userSpaceOnUse">
   <stop stop-color="#9a0000" offset="0"/>
   <stop offset="1"/>
  </linearGradient>
  <linearGradient id="n" x1="413.36" x2="373.62" y1="375.11" y2="320.23" gradientUnits="userSpaceOnUse">
   <stop stop-color="#950101" offset="0"/>
   <stop offset="1"/>
  </linearGradient>
  <linearGradient id="q" x1="485.42" x2="475.5" y1="469.23" y2="397.23" gradientUnits="userSpaceOnUse">
   <stop stop-color="#9c0001" offset="0"/>
   <stop stop-color="#fff" offset="1"/>
  </linearGradient>
  <linearGradient id="i" x1="-21630" x2="-21633" y1="50.392" y2="46.326" gradientTransform="matrix(6.7181 .93394 -1.1332 8.1512 1.4593e5 20157)" gradientUnits="userSpaceOnUse" xlink:href="#a"/>
  <linearGradient id="j" x1="396.07" x2="398.17" y1="368.08" y2="339.93" gradientUnits="userSpaceOnUse" xlink:href="#a"/>
  <linearGradient id="m" x1="421.1" x2="441.52" y1="352.24" y2="306.86" gradientUnits="userSpaceOnUse" xlink:href="#a"/>
  <linearGradient id="o" x1="433.46" x2="299.58" y1="339.48" y2="311.32" gradientUnits="userSpaceOnUse" xlink:href="#a"/>
  <linearGradient id="p" x1="271.42" x2="258.2" y1="300.98" y2="358.44" gradientUnits="userSpaceOnUse" xlink:href="#a"/>
  <radialGradient id="c" cx="-21778" cy="43.045" r="7.7896" gradientTransform="matrix(-25.253 -1.7847 .08865 -1.2542 -5.4963e5 -38412)" gradientUnits="userSpaceOnUse" xlink:href="#b"/>
  <radialGradient id="d" cx="-21778" cy="60.949" r="7.7896" gradientTransform="matrix(-25.253 -1.7847 .08865 -1.2542 -5.4963e5 -38412)" gradientUnits="userSpaceOnUse" xlink:href="#b"/>
  <radialGradient id="e" cx="-21774" cy="43.605" r="6.6814" gradientTransform="matrix(-43.971 -4.7534 .2285 -2.1137 -9.5707e5 -1.0311e5)" gradientUnits="userSpaceOnUse" xlink:href="#b"/>
  <radialGradient id="f" cx="-21771" cy="40.737" r="5.953" gradientTransform="matrix(-32.286 -4.6364 .43473 -3.0273 -7.0249e5 -1.0054e5)" gradientUnits="userSpaceOnUse" xlink:href="#b"/>
  <radialGradient id="g" cx="-21793" cy="45.911" r="5.8672" gradientTransform="matrix(-5.239 5.9048 -1.2679 -1.1249 -1.1387e5 1.2905e5)" gradientUnits="userSpaceOnUse" xlink:href="#b"/>
 </defs>
 <g transform="translate(-137.32 -244.3)">
  <path d="m621.42 676.99 23.992-270.98-363.31 73.14 10.793 293.46 328.53-95.622z" fill="#c1bdbc"/>
  <path d="m293.43 773.04-129.51-171.26-18.651-236.33 137.14 111.91 11.017 295.68z" fill="#94908f"/>
  <path transform="matrix(6.7827 0 0 6.7827 1.4875e5 1706)" d="m-21836-187.53 0.231-6.5846-53.706 10.257 0.157 7.1562 53.318-10.829z" filter="url(#r)"/>
  <path transform="matrix(6.7827 0 0 6.7827 1.4875e5 1706)" d="m-21889-176.67-0.219-7.25-19.721-17.263v5.6022l19.942 18.91z" filter="url(#s)"/>
  <path d="m649.73 432.21 3.8308-44.511-373.27 71.218 1.0556 48.539 368.38-75.246z" fill="#c2bebd"/>
  <path d="m281.56 507.66-1.475-49.174-142.76-125.48 3.2925 40.696 140.94 133.96z" fill="#9a9695"/>
  <path d="m653.34 387.7-373.04 71.671-142.71-126.36 316.25-45.996 199.5 100.68z" fill="#dddcda"/>
  <path d="m652.75 387.99-372.83 70.555" fill="none" stroke="#fff" stroke-width="2.7131"/>
  <path d="m499.13 713.19-65.424 18.96 8.5424-304.55-98.797-67.664 60.839-17.169 110.43 71.006-15.589 299.42z" fill="url(#q)"/>
  <path d="m442.24 427.59-166.24-114.13 66.536-9.375 172.18 109.67-72.471 13.827z" fill="#b90006"/>
  <path d="m234.61 695.25-25.858-33.808-23.209-285.08 339.61-54.235 38.308 19.33-350.32 58.751 21.468 295.05z" fill="#630005"/>
  <path d="m195.72 379.75 339.6-54.235 38.308 19.33-350.3 58.751-27.606-23.845z" fill="#a90007"/>
  <path d="m288.92 329.71c-15.253 1.4995-29.109 0.0699-36.77-14.366l-27.592 2.2985c-6.3754 2.3314-21.153 30.602 3.7469 39.075l93.946 10.631-0.82488-28.731-32.478-8.9066z" fill="#a00c0d"/>
  <path d="m288.92 329.71c-15.253 1.4995-29.109 0.0699-36.77-14.366l-27.592 2.2985c-6.3754 2.3314-21.153 30.602 3.7469 39.075l93.946 10.631-0.82488-28.731-32.478-8.9066z" fill="url(#p)"/>
  <path d="m288.92 329.71c-15.253 1.4995-29.109 0.0699-36.77-14.366l-27.592 2.2985c-6.3754 2.3314-21.153 30.602 3.7469 39.075l93.946 10.631-0.82488-28.731-32.478-8.9066z" fill="url(#g)" opacity=".27391"/>
  <path d="m325.86 357.11c-30.556-21.563-67.899-45.511-102.8-38.804l39.399-28.442c33.177-6.0454 69.262 17.604 105.04 38.195l-41.643 29.051z" fill="#a70007"/>
  <path d="m325.86 357.11c-30.556-21.563-67.899-45.511-102.8-38.804l39.399-28.442c33.177-6.0454 69.262 17.604 105.04 38.195l-41.643 29.051z" fill="url(#o)" opacity=".66087"/>
  <path d="m465.35 326.4-84.348 87.823c-16.043 4.7263-7.9832-97.601 44.544-52.135 47.438-128.24 50.423-67.443 39.804-35.687z" fill="url(#n)"/>
  <path d="m431.11 349.92c-1.0905 0.33555 24.893-67.026 35.54-65.978l-31.604-2.4886-3.9357 68.467z" fill="#a40000" opacity=".98261"/>
  <path d="m431.15 349.93c6.0608-17.26 24.858-67.037 35.505-65.989l-33.184-3.1919-2.3209 69.181z" fill="url(#m)" opacity=".98261"/>
  <path d="m427.28 364.56c-4.0056-74.242 18.399-178.04 16.043-61.793-0.8109 10.242-8.9199 37.153-16.043 61.793z" fill="url(#l)"/>
  <path d="m426.78 331.37c6.1657-75.924 9.7868-75.206 13.687-80.11l-87.074-6.9661c-6.3544 9.3114-6.3614 19.419-7.7106 29.357l81.097 57.72z" fill="#b40101"/>
  <path d="m426.78 331.37c6.1657-75.924 9.7868-75.206 13.687-80.11l-87.074-6.9661c-6.3544 9.3114-6.3614 19.419-7.7106 29.357l81.097 57.72z" fill="url(#f)" opacity=".76087"/>
  <path d="m427.4 365.44c0.48934-46.356 0-88.658-9.6749-94.822-10.647 14.229-9.7798 47.276-7.8084 69.369 1.1674 13.16 5.9979 13.626 17.483 25.453z" fill="url(#k)"/>
  <path d="m426.17 364.62-87.256-11.672c-31.08-22.517-16.393-83.55-10.213-90.424l89.066 8.1139c-6.1377 12.833-18.588 60.332 8.4026 93.982z" fill="#a40e0f"/>
  <path d="m426.17 364.62-87.256-11.672c-31.08-22.517-16.393-83.55-10.213-90.424l89.066 8.1139c-6.1377 12.833-18.588 60.332 8.4026 93.982z" fill="url(#e)" opacity=".60435"/>
  <path d="m426.17 364.62-87.256-11.672c-31.08-22.517-16.393-83.55-10.213-90.424l89.066 8.1139c-6.1377 12.833-18.588 60.332 8.4026 93.982z" fill="url(#j)" opacity=".60435"/>
  <path d="m380.13 413.46-92.876-9.4988c-7.9133-14.25-9.8427-54.861 30.255-59.814l89.192 10.556c-34.456-7.505-37.924 54.31-26.571 58.757z" fill="#b60000"/>
  <path d="m380.13 413.46-92.876-9.4988c-7.9133-14.25-9.8427-54.861 30.255-59.814l89.192 10.556c-34.456-7.505-37.924 54.31-26.571 58.757z" fill="url(#d)" opacity=".60435"/>
  <path d="m380.13 413.46-92.876-9.4988c-7.9133-14.25-9.8427-54.861 30.255-59.814l89.192 10.556c-34.456-7.505-37.924 54.31-26.571 58.757z" fill="url(#c)" opacity=".60435"/>
  <path d="m419 372.84 30.43-30.412c25.138-13.179 129-57.197 115.43 19.368l-28.591 33.992-117.27-22.948z" fill="#a80007"/>
  <path d="m419 372.84 30.43-30.412c25.138-13.179 129-57.197 115.43 19.368l-28.591 33.992-117.27-22.948z" fill="url(#i)" opacity=".33478"/>
  <path d="m414.63 376.13c77.294-38.283 170.17-22.535 121.31 19.212l-121.31-19.212z" fill="url(#h)"/>
 </g>
</svg>
