<?xml version="1.0" encoding="UTF-8"?>
<svg version="1.1" viewBox="0 0 502.05 456.06" xmlns="http://www.w3.org/2000/svg" xmlns:xlink="http://www.w3.org/1999/xlink">
 <defs>
  <linearGradient id="a">
   <stop stop-color="#609216" offset="0"/>
   <stop stop-color="#8ad220" offset="1"/>
  </linearGradient>
  <linearGradient id="b">
   <stop stop-color="#6c0363" offset="0"/>
   <stop stop-color="#a40496" offset="1"/>
  </linearGradient>
  <radialGradient id="o" cx="506.6" cy="625.06" r="51.53" gradientTransform="matrix(2.4877 -1.0403 .6164 1.474 -1138.4 236.53)" gradientUnits="userSpaceOnUse">
   <stop stop-color="#4d7412" offset="0"/>
   <stop stop-color="#8ad220" offset="1"/>
  </radialGradient>
  <radialGradient id="p" cx="525.05" cy="620.16" r="39.333" gradientTransform="matrix(2.4186 1.2107 -1.0757 2.1491 -92.911 -1335.3)" gradientUnits="userSpaceOnUse" xlink:href="#a"/>
  <radialGradient id="v" cx="395.64" cy="798.95" r="75.394" gradientTransform="matrix(1.7958 0 0 .89667 -320.62 83.279)" gradientUnits="userSpaceOnUse" xlink:href="#b"/>
  <radialGradient id="w" cx="408.44" cy="818.81" r="100.3" gradientTransform="matrix(.99975 .022142 -.028487 1.2862 23.426 -232.86)" gradientUnits="userSpaceOnUse" xlink:href="#b"/>
  <linearGradient id="q" x1="330" x2="152.71" y1="872.21" y2="770.21" gradientTransform="translate(3 -12)" gradientUnits="userSpaceOnUse" xlink:href="#a"/>
  <linearGradient id="r" x1="288.2" x2="319.55" y1="993.4" y2="754.4" gradientTransform="matrix(.92594 -.37766 .37766 .92594 -281.4 174.74)" gradientUnits="userSpaceOnUse" xlink:href="#a"/>
  <linearGradient id="s" x1="330" x2="152.71" y1="872.21" y2="770.21" gradientTransform="translate(4e-5 -7.3828e-6)" gradientUnits="userSpaceOnUse" xlink:href="#a"/>
  <radialGradient id="x" cx="506.27" cy="739.39" r="61.359" gradientTransform="matrix(.95281 .30356 -.46565 1.4616 368.18 -490.47)" gradientUnits="userSpaceOnUse" xlink:href="#b"/>
  <linearGradient id="t" x1="540.77" x2="643.33" y1="701.6" y2="702.6" gradientUnits="userSpaceOnUse" xlink:href="#a"/>
  <radialGradient id="y" cx="415.42" cy="775.1" r="86.488" gradientTransform="matrix(1 0 0 1.3941 0 -303.07)" gradientUnits="userSpaceOnUse" xlink:href="#b"/>
  <linearGradient id="u" x1="437" x2="423" y1="652.43" y2="594.43" gradientTransform="matrix(.51365 .858 -.858 .51365 857.57 -30.157)" gradientUnits="userSpaceOnUse" xlink:href="#a"/>
  <radialGradient id="z" cx="449" cy="793.22" r="73.161" gradientTransform="matrix(1.8006 .42958 -.21072 .88323 -192.31 -98.517)" gradientUnits="userSpaceOnUse" xlink:href="#b"/>
 </defs>
 <g transform="translate(-139.49 -540.87)">
  <g transform="matrix(-.17931 -.92689 -.92689 .17931 1236 1224.4)">
   <path d="m494.56 637.93c-9.1209 5.0577-18.57 1.9476-12-6.5-15.641-6.1037-20.147-21.926-7-28.5-6.2774-16.423-0.3604-31.5 13.5-31.5 4.5567-16.474 9.6143-26.081 27-24.5 13.429-18.192 55.934-5.3199 47 19.25 14.276 5.3746 5.9135 27.337-0.5 33.75 15.655 8.2333 6.3486 25-8 25 17.233 12.424-12.106 25.611-25 19.75-3.1526 17.55-14.575-2.2755-18.25-7-7.9657 4.7115-10.101 13.415-14.25 18.75-2.6104 0.62616-6.953 0.96873-8.5 1.25 1.6851-6.6218 7.9451-12.618 6-19.75z" fill="url(#o)"/>
   <path d="m549.92 541.29c10.172 4.3676 17.342 13.333 13.141 24.885 14.276 5.3746 5.9135 27.337-0.5 33.75 15.655 8.2333 6.3486 25-8 25 17.233 12.424-12.106 25.611-25 19.75-3.1526 17.55-14.575-2.2755-18.25-7-7.9657 4.7115-13.432 23.31-17.581 28.644-1.3536 0.32468-3.1728 0.57311-4.8266 0.77628" fill="url(#p)"/>
  </g>
  <g transform="matrix(.88458 -.79565 -.79565 -.88458 539.48 1881.5)">
   <path d="m494.56 637.93c-9.1209 5.0577-18.57 1.9476-12-6.5-15.641-6.1037-20.147-21.926-7-28.5-6.2774-16.423-0.3604-31.5 13.5-31.5 4.5567-16.474 9.6143-26.081 27-24.5 13.429-18.192 55.934-5.3199 47 19.25 14.276 5.3746 5.9135 27.337-0.5 33.75 15.655 8.2333 6.3486 25-8 25 17.233 12.424-12.106 25.611-25 19.75-3.1526 17.55-14.575-2.2755-18.25-7-7.9657 4.7115-10.101 13.415-14.25 18.75-2.6104 0.62616-6.953 0.96873-8.5 1.25 1.6851-6.6218 7.9451-12.618 6-19.75z" fill="url(#o)"/>
   <path d="m549.92 541.29c10.172 4.3676 17.342 13.333 13.141 24.885 14.276 5.3746 5.9135 27.337-0.5 33.75 15.655 8.2333 6.3486 25-8 25 17.233 12.424-12.106 25.611-25 19.75-3.1526 17.55-14.575-2.2755-18.25-7-7.9657 4.7115-10.101 13.415-14.25 18.75-1.3536 0.32468-3.1728 0.57311-4.8266 0.77628" fill="url(#p)"/>
  </g>
  <g transform="matrix(.27234 -1.4078 1.4078 .27234 -751.73 1292.6)">
   <path d="m494.56 637.93c-9.1209 5.0577-18.57 1.9476-12-6.5-15.641-6.1037-20.147-21.926-7-28.5-6.2774-16.423-0.3604-31.5 13.5-31.5 4.5567-16.474 9.6143-26.081 27-24.5 13.429-18.192 55.934-5.3199 47 19.25 14.276 5.3746 5.9135 27.337-0.5 33.75 15.655 8.2333 6.3486 25-8 25 17.233 12.424-12.106 25.611-25 19.75-3.1526 17.55-14.575-2.2755-18.25-7-7.9657 4.7115-10.101 13.415-14.25 18.75-2.6104 0.62616-6.953 0.96873-8.5 1.25 1.6851-6.6218 7.9451-12.618 6-19.75z" fill="url(#o)"/>
   <path d="m549.92 541.29c10.172 4.3676 17.342 13.333 13.141 24.885 14.276 5.3746 5.9135 27.337-0.5 33.75 15.655 8.2333 6.3486 25-8 25 17.233 12.424-12.106 25.611-25 19.75-3.1526 17.55-14.575-2.2755-18.25-7-7.9657 4.7115-10.101 13.415-14.25 18.75-1.3536 0.32468-3.1728 0.57311-4.8266 0.77628" fill="url(#p)"/>
  </g>
  <g transform="matrix(1.0754 0 0 1.0754 -28.291 -38.112)">
   <path d="m494.56 637.93c-9.1209 5.0577-18.57 1.9476-12-6.5-15.641-6.1037-20.147-21.926-7-28.5-6.2774-16.423-0.3604-31.5 13.5-31.5 4.5567-16.474 9.6143-26.081 27-24.5 13.429-18.192 55.934-5.3199 47 19.25 14.276 5.3746 5.9135 27.337-0.5 33.75 15.655 8.2333 6.3486 25-8 25 17.233 12.424-12.106 25.611-25 19.75-3.1526 17.55-14.575-2.2755-18.25-7-7.9657 4.7115-10.101 13.415-14.25 18.75-2.6104 0.62616-6.953 0.96873-8.5 1.25 1.6851-6.6218 7.9451-12.618 6-19.75z" fill="url(#o)"/>
   <path d="m549.92 541.29c10.172 4.3676 17.342 13.333 13.141 24.885 14.276 5.3746 5.9135 27.337-0.5 33.75 15.655 8.2333 6.3486 25-8 25 17.233 12.424-12.106 25.611-25 19.75-3.1526 17.55-14.575-2.2755-18.25-7-7.9657 4.7115-10.101 13.415-14.25 18.75-1.3536 0.32468-3.1728 0.57311-4.8266 0.77628" fill="url(#p)"/>
  </g>
  <path d="m361.84 834.34c-2.3045 6.5498-2.1228 13.653-1.4062 20.469 0.14813 2.353-2.9512 8.4636-0.34375 8.9375 4.324-4.1281 10.405-7.3713 16.511-5.5271 4.6624 1.0065 11.205 4.8512 8.3664 10.535-2.0083 4.7044-5.5162 9.976-2.9083 15.18 2.8619 5.4895 8.5661 8.7365 13.927 11.375 5.672 0.35505 3.9572-8.0364 4.4349-11.783 0.26348-7.8301-0.66904-16.474 3.7006-23.405 2.5913-4.9461 8.2738-3.5171 10.377 1.0453 4.7282 5.7514 8.2149 12.74 14.312 17.215 5.4625 2.3765 17.287-5.2258 18.558-10.679 1.3413-5.0576-0.32818-10.321-5.2764-13.528-3.6224-2.4106-12.016-3.4688-13.315-7.9283 2.4513-3.9168 8.5422-1.8008 12.387-1.3522 5.6372 1.201 10.989 3.4527 16.026 6.2163-0.13613-3.5243-5.5366-6.9577-5.7324-11.228 0.82268-1.3894 4.0834 0.56538 1.1491-0.98794-15.363-8.397-26.699-22.417-41.856-31.091-2.3937 1.9672-5.5138 6.1867-9.2167 7.9085-12.603 7.4405-26.541 12.282-39.695 18.628z" fill="#fff"/>
  <path d="m490.44 745.69c-17.643-0.35352-34.279 9.5119-47.5 25.094-0.85735 1.0104-1.8648 1.8503-2.875 2.6875 0.53901 0.87793 1.0359 1.7535 1.5938 2.625 1.768 2.7619 3.6276 5.4486 5.6875 7.9688 1.03 1.2601 2.1178 2.4757 3.25 3.625s2.3085 2.2451 3.5625 3.25 2.5734 1.9231 3.9688 2.75c1.3953 0.8269 2.8814 1.5722 4.4375 2.1875 0.8312 0.63329 1.4242 1.2741 1.8438 1.9375 0.41956 0.66336 0.65616 1.3435 0.75 2.0312 0.0938 0.68772 0.0522 1.3874-0.0937 2.0938-0.14594 0.70638-0.38771 1.4057-0.6875 2.125-0.59959 1.4387-1.4256 2.8874-2.125 4.3438-0.69944 1.4563-1.2632 2.9154-1.375 4.3438 9.9e-4 0.24658 0.14562 0.4494 0.40625 0.625s0.62462 0.31999 1.0938 0.4375c0.93826 0.23502 2.2533 0.38874 3.7188 0.46875 2.9308 0.16001 6.5089 0.0914 9.0938 0.25 1.2924 0.0793 2.314 0.23511 2.9062 0.46875 0.29612 0.11682 0.48688 0.26276 0.53125 0.4375 0.0444 0.17474-0.054 0.37946-0.3125 0.625-0.51704 0.49109-1.6833 1.1171-3.7188 1.9688-2.0354 0.85164-4.9433 1.9034-8.9062 3.2188-1.2368 0.71128-2.5034 1.5065-3.7188 2.375-1.2153 0.86846-2.3749 1.8176-3.4062 2.875-1.0314 1.0574-1.9089 2.222-2.5938 3.5-0.35469 0.66188-0.45881 1.46-0.6875 2.1875 24.781 10.95 43.136 27.665 54.594 46.344 17.864-1.0739 42.799-24.243 48.156-43.531 3.9436-14.199-2.2491-31.331-6.375-44.062-6.8962-21.28-22.405-35.936-43.312-41.344-6.0205-2.5594-12.025-3.7884-17.906-3.9062z" fill="url(#z)"/>
  <path d="m507.67 686.3 4.8882 8.7239c20.758-12.629 37.206-31.275 47.84-52.469 10.305-20.467 15.255-43.812 11.912-66.05 1.7158 22.422-4.9348 44.737-16.221 63.689-11.714 19.606-28.594 35.995-48.418 46.106z" fill="url(#u)" fill-rule="evenodd"/>
  <path d="m413.15 783.66c8.1007-7.7024 12.748-7.9952 22.75-13.427 9.4288-5.1206 11.4-16.053 27.253-25.464 20.635-18.542 7.4262-83.483-14.142-103.54-39.106-36.366-110.4-38.377-139.91 6.0609-6.2679 9.4405-10.89 40.181-7.4143 56.721 2.7172 12.932 14.328 20.266 13.475 29.647 28.261-9.9734 71.115 7.6724 97.985 50.003z" fill="url(#y)"/>
  <path d="m522.98 721.39 8.0453 5.9391c8.1426-11.636 17.224-22.583 27.975-31.596 7.6983-6.4352 16.2-11.931 25.558-15.063 7.0283-2.3531 14.557-3.3826 21.833-2.2966 6.1102 0.8983 12.062 3.2724 17.072 6.9822 4.5982 3.4018 8.4428 7.9084 10.999 13.09 2.4124 4.8975 3.6914 10.422 3.3494 15.907-0.33687 5.5263-2.4048 10.994-5.8865 15.419-4.2281 5.3889-10.369 9.1852-16.923 11.589 6.6702-2.0572 13.076-5.5427 17.766-10.888 3.8566-4.4084 6.357-10.031 7.0337-15.943 0.66223-5.8471-0.36797-11.856-2.7128-17.293-2.476-5.7493-6.3832-10.886-11.26-14.902-5.3268-4.3829-11.777-7.3886-18.597-8.7562-8.1125-1.6104-16.556-0.96736-24.462 1.2648-10.464 2.9538-20.046 8.3736-28.577 14.844-11.922 9.0176-22.151 20.033-31.213 31.703z" fill="url(#t)" fill-rule="evenodd"/>
  <path d="m558.11 782.15c74.34-59.179-32.977-147.96-97.48-141.93 17.208 30.765 27.272 66.511 18.688 97.985 34.355 0.62002 65.004 16.367 78.792 43.942z" fill="url(#x)"/>
  <path d="m455.28 832.19c0.22869-0.72752 0.33281-1.5256 0.6875-2.1875 0.68488-1.278 1.5624-2.4426 2.5938-3.5s2.1909-2.0065 3.4062-2.875c1.2153-0.86846 2.4819-1.6637 3.7188-2.375 3.9629-1.3153 6.8708-2.3671 8.9062-3.2188 2.0354-0.85164 3.2017-1.4777 3.7188-1.9688 0.25852-0.24554 0.35687-0.45026 0.3125-0.625-0.0444-0.17474-0.23513-0.32068-0.53125-0.4375-0.59225-0.23364-1.6138-0.38943-2.9062-0.46875-2.5848-0.15863-6.1629-0.09-9.0938-0.25-1.4654-0.08-2.7805-0.23373-3.7188-0.46875-0.46913-0.11751-0.83312-0.2619-1.0938-0.4375-0.26063-0.1756-0.40526-0.37842-0.40625-0.625 0.11185-1.4284 0.67556-2.8874 1.375-4.3438 0.69944-1.4563 1.5254-2.9051 2.125-4.3438 0.29979-0.71934 0.54156-1.4186 0.6875-2.125 0.14594-0.70638 0.18759-1.406 0.0937-2.0938-0.0938-0.68772-0.33044-1.3679-0.75-2.0312-0.41956-0.66336-1.0126-1.3042-1.8438-1.9375-1.5561-0.61533-3.0422-1.3606-4.4375-2.1875s-2.7148-1.7451-3.9688-2.75-2.4303-2.1007-3.5625-3.25-2.22-2.3649-3.25-3.625c-2.0599-2.5202-3.9195-5.2068-5.6875-7.9688-0.55785-0.87146-1.0547-1.7471-1.5938-2.625-10.024 8.3074-26.389 9.4279-27.094 28.719 14.403 7.1007 23.855 22.493 37.062 27.688 1.8121 0.71261 3.5026 1.5404 5.25 2.3125z" fill="#fff"/>
  <path d="m379.78 758.12c-0.28618 0.42583-0.54035 0.72881-0.875 1.2812-1.2825 2.1171-2.9175 5.0875-5 8.3125-1.0412 1.6125-2.2012 3.2716-3.4688 4.9375-1.2675 1.6659-2.645 3.336-4.1562 4.9062s-3.165 3.0494-4.9375 4.375c-1.7724 1.3256-3.6676 2.4744-5.7188 3.4062-1.5656 0.73007-2.6637 1.5493-3.375 2.4062-0.71133 0.85696-1.0441 1.7775-1.125 2.7188-0.0809 0.94129 0.11166 1.8919 0.4375 2.875 0.32584 0.98309 0.77248 1.9864 1.2812 2.9688 0.50877 0.98233 1.0633 1.936 1.5312 2.875 0.46793 0.93902 0.85918 1.8656 1.0625 2.7188 0.20332 0.85317 0.22256 1.6502-0.0625 2.375-0.28506 0.72477-0.87779 1.3837-1.875 1.9375-2.1297 0.46059-3.5874 0.88327-4.5 1.3125-0.45632 0.21462-0.76497 0.43818-0.96875 0.65625s-0.29553 0.4272-0.28125 0.65625c0.0285 0.4581 0.46238 0.9528 1.1562 1.5 0.69387 0.5472 1.6667 1.1472 2.75 1.8438 1.0833 0.69653 2.2719 1.4689 3.4688 2.375 1.1969 0.90609 2.403 1.9491 3.4375 3.125s1.9037 2.4941 2.5 4c0.29816 0.75294 0.51937 1.5595 0.65625 2.4062 0.0239 0.14782 0.0129 0.31793 0.0312 0.46875 13.645-6.0937 28.032-11.825 41.312-17.656 3.8356-3.8356 6.1967-7.277 8.0625-13.156-10.029-15.072-20.589-26.844-31.344-35.625z" fill="#fff"/>
  <path d="m418.98 837.71h3.5715c10.53 7.4758 14.533 4.4946 17.339 4.7574 3.162 0.29614-2.5749 0.13127-12.339-6.0209 5.9181-1.2773 10.416 1.1343 13.571 1.8954-8.7659-6.4792-14.507-13.172-19.286-20.217 2.2135 0.39799 4.2857 1.2636 6.4285 1.8954-4.2248-1.3666-4.5973-6.39-5-6.9497 8.1501-1.9609 17.176-2.5325 25-3.7907-5.8526-4.347-15.094-0.0915-21.577-2.1767 6.3707-3.2658 11.066-7.0329 15-12.004-10.347 1.653-13.709 13.39-23.571 8.845 12.811 11.464-35.615 11.215-20.804 0.0261-3.1249-6.3034-24.061-11.755-32.619-15.539 12.113 6.3097 15.56 13.312 17.143 15.795-8.0534-0.63366-15.671-1.2027-24.286-1.8954 9.282 1.1921 17.675 5.6054 25 8.845-3.1462 1.5242-2.8403 3.7683-4.2858 5.6861 4.0946 0.82568 5.4792-1.3217 7.8572-1.8954-7.8276 5.3516-12.882 10.752-21.429 14.531 8.7707-0.53906 16.267-4.1982 22.857-6.3179-8.0111 8.8221-15.591 16.034-21.429 24.64 8.8039-4.2682 15.242-8.9655 20.714-13.268-6.7587 10.943-7.4619 15.916-6.9948 21.777 3.9489-11.466 8.4261-13.502 15.566-16.091-0.874 5.8852-1.538 9.2777-2.1429 15.163 0.6934-8.8802 5.3601-12.322 10-16.426-0.9677 8.2677 0.5587 13.459 4.2858 18.954-1e-4 -6.7391 0-13.478 0.3571-22.744 2.916 9.6139 11.509 18.521 17.287 27.706 1.9714-9.8233-4.3181-12.787-6.216-22.02" fill="#5e017b"/>
  <path d="m408.21 814.58c-4e-3 4.5097-0.59956 10.223-0.72126 14.017 0.56838 1.6533 2.2153 1.0965 2.8899 0.5419 1.28-3.968 0.64101-11.707 1.1514-15.845 1.4344 16.828 5.8253 11.563 3.1901-1.5023 8.3155 16.633 5.6266-1.9505 5.6266-1.9505s8.3529 0.17503 10.384 1.2105c-17.295-7.7943-3.1465-3.2032-3.0033-7.667-13.943 6.3908-13.827-10.568-15.536-19.045-4.7373 10.773-10.703 16.695-20.194 14.638-1.0037 4.1994-3.465 3.9335-6.623 4.8341 3.9185 0.13358 6.0661 1.1676 8.9883 0.4955-2.2361 5.0522-5.1042 2.6059-8.9064 5.5731 2.3347 9.0186 6.5161-0.0187 8.607 0.93922-10.249 10.831-5.9355 14.247 4.5305 3.7468-1.1018 3.8658-3.6293 6.3952-4.7729 10.059 1.1293 2.2098 2.8186 2.031 4.4229 0.81141 1.875-1.4719 5.0839-12.799 4.7592-10.584-1.9524 13.321 0.1093 19.061 5.2064-0.27346z" fill="#ffd42a"/>
  <path d="m375.06 951.17 18.874-6.6172c-4.4683-11.542-10.653-22.166-17.949-31.734-7.6524-10.039-16.42-18.973-25.778-26.979-20.332-17.377-43.264-30.819-66.812-42.102h-1e-5c-24.337-11.679-49.541-21.129-75.054-29.251-22.715-7.2319-45.713-13.389-68.85-18.812 22.722 6.9608 45.208 14.63 67.249 23.314 24.761 9.7567 48.991 20.748 71.964 33.744v1e-5c22.233 12.595 43.382 26.955 61.151 44.425 8.16 8.0166 15.573 16.641 21.69 25.942 5.8126 8.8419 10.506 18.284 13.516 28.07z" fill="url(#s)" fill-rule="evenodd"/>
  <path d="m378.58 954 9.0705-9.5899c-26.865-24.636-50.734-52.648-70.66-83.314-18.816-28.943-34.145-60.219-46.736-92.585 0-1e-5 -1e-5 -2e-5 -1e-5 -2e-5 -12.779-32.851-22.814-66.816-31.644-101.09-9.2604-35.949-17.224-72.263-25.43-108.51 7.0987 36.48 13.952 73.012 22.131 109.31 7.7971 34.606 16.837 69.027 28.727 102.6 11.718 33.092 26.311 65.315 44.637 95.501 19.428 31.983 43.022 61.478 69.906 87.68z" fill="url(#r)" fill-rule="evenodd"/>
  <path d="m376.03 940.54 13.931-14.35c-17.892-15.81-37.401-29.58-58.034-41.085-18.029-10.068-37.046-18.527-56.845-24.219h-1e-5c-14.947-4.3423-30.8-7.4058-46.364-5.6904h-1e-5c-5.6363 0.61515-11.301 1.9881-16.262 4.7345-4.2131 2.3336-7.7817 5.8076-9.8627 10.016 2.4774-3.9879 6.2741-6.9699 10.466-8.7964 4.9689-2.1685 10.427-2.8997 15.848-2.9917h1e-5c15.046-0.24207 29.693 4.2407 43.791 9.7534 18.517 7.3083 35.878 17.192 52.214 28.481 18.649 12.907 35.825 27.742 51.117 44.148z" fill="url(#q)" fill-rule="evenodd"/>
  <path d="m361.84 834.34c-24.494 11.514-50.098 27.274-55.969 55.312-4.5739 22.87 17.901 38.807 37.906 47.938 26.876 12.266 18.685 11.39 36.094 20.094 11.697 5.8485 29.207 26.459 44.344 21.312 14.936-5.0781 23.464-21.976 36.844-24.25 55.678-9.4639 66.171-78.321-7-115.09-1.1014-0.35588-1.8218-0.40778-2.2188-0.21875-0.39699 0.18903-0.49576 0.61058-0.375 1.1875s0.45436 1.3172 0.90625 2.125c0.45189 0.80779 1.0286 1.6808 1.625 2.5625 1.1928 1.7633 2.5052 3.5084 3.1562 4.625 0.32552 0.5583 0.46485 0.96391 0.375 1.125-0.0899 0.16109-0.43316 0.0806-1.125-0.3125-2.2341-1.2695-4.5331-2.3658-6.8438-3.2812-2.3107-0.9155-4.6041-1.6319-6.7812-2.1875-2.1772-0.55558-4.2601-0.93525-6.0938-1.125s-3.4387-0.182-4.7188 0-2.2335 0.53409-2.75 1.0938c-0.25823 0.27983-0.40956 0.62465-0.4375 1-0.0279 0.37535 0.0839 0.77838 0.3125 1.25 0.45722 0.94323 1.4528 2.0735 3.0938 3.4062 1.6409 1.3327 3.934 2.8656 6.9688 4.5938 0.711 0.40488 1.3255 1.0919 1.8438 1.9688 0.51822 0.87688 0.92669 1.9589 1.2188 3.1562 0.29206 1.1974 0.46748 2.5086 0.5 3.875 0.0325 1.3664-0.0833 2.7723-0.34375 4.1562-0.2604 1.384-0.6633 2.7499-1.25 4s-1.3661 2.3791-2.3125 3.3438c-0.94637 0.96465-2.0668 1.7535-3.4062 2.2812-0.66971 0.26388-1.382 0.46749-2.1562 0.59375-0.77423 0.12626-1.6171 0.18655-2.5 0.15625-0.81932-0.0281-1.6906-0.42858-2.625-1.0938-0.93443-0.66517-1.929-1.6067-2.9375-2.7188-2.017-2.224-4.1514-5.1298-6.2188-8-2.0673-2.8702-4.0543-5.6927-5.8438-7.6875-0.89472-0.99738-1.7363-1.788-2.5-2.2812-0.76373-0.4932-1.4708-0.70118-2.0625-0.5-0.94604 0.32164-1.7619 0.77692-2.5 1.3438-0.73814 0.56683-1.3814 1.2577-1.9375 2.0312-0.55612 0.77351-1.0375 1.6521-1.4375 2.5938-0.39998 0.94168-0.73027 1.9287-1 3-0.53945 2.1426-0.82631 4.5074-1 6.9375-0.17369 2.4302-0.23504 4.9342-0.25 7.3438-0.015 2.4095 7.6e-4 4.7317-0.0625 6.8125-0.0633 2.0808-0.21265 3.9311-0.53125 5.375-0.1593 0.72197-0.36305 1.3388-0.625 1.8438-0.26195 0.50498-0.57827 0.90677-0.96875 1.1562-0.39048 0.24948-0.8301 0.35704-1.375 0.3125-0.5449-0.0445-1.1811-0.24792-1.9062-0.625-1.9027-0.98934-3.5549-1.9572-5-2.9062-1.4451-0.94907-2.6786-1.8711-3.7188-2.7812-1.0402-0.91016-1.9059-1.8149-2.5938-2.6875-0.68785-0.87261-1.2056-1.7261-1.5938-2.5625-0.38819-0.83642-0.64009-1.6672-0.78125-2.4688-0.14116-0.80159-0.17824-1.5756-0.125-2.3438 0.10647-1.5362 0.55679-2.9957 1.125-4.4062 0.56821-1.4106 1.2662-2.7668 1.875-4.0625 0.60885-1.2957 1.1154-2.5269 1.3438-3.7188 0.1142-0.59591 0.15362-1.2093 0.0937-1.7812-0.0599-0.57197-0.21342-1.1069-0.5-1.6562-0.28658-0.54939-0.68408-1.0968-1.25-1.625-0.56592-0.52817-1.2896-1.0542-2.1875-1.5625-1.196-0.6771-2.3386-1.1995-3.4375-1.5938-1.0988-0.39425-2.154-0.65712-3.1562-0.8125-1.0023-0.15538-1.9687-0.19575-2.875-0.15625-0.90629 0.0395-1.7516 0.15335-2.5625 0.34375-1.6218 0.38081-3.0685 1.0295-4.3125 1.75-1.244 0.72052-2.2851 1.5104-3.1562 2.2188-0.87112 0.70839-1.5594 1.3431-2.0625 1.6875-0.25154 0.1722-0.46455 0.26602-0.625 0.28125-0.16045 0.0152-0.27379-0.0643-0.34375-0.25-0.13993-0.37145-0.0933-1.1859 0.125-2.625 0.21835-1.4391 0.61576-3.485 1.1875-6.3438-0.34632-3.12-0.50334-5.9751-0.46875-8.5938 0.0346-2.6186 0.25256-5.0213 0.625-7.1875 0.29721-1.7287 0.76228-3.2189 1.25-4.6875z" fill="url(#w)"/>
  <path d="m332.47 738.38c-8.6369-0.27816-17.035 1.2818-25 4.5625-16.947 6.9807-32.729 16.694-37.969 41.125-17.973 33.672-11.14 64.83 35.562 89.5 2.3806-21.418 27.731-36.068 56.688-49-0.0184-0.15082-7e-3 -0.32093-0.0312-0.46875-0.13688-0.84674-0.35809-1.6533-0.65625-2.4062-0.59633-1.5059-1.4655-2.8241-2.5-4s-2.2406-2.2189-3.4375-3.125c-1.1969-0.90609-2.3854-1.6785-3.4688-2.375-1.0833-0.69653-2.0561-1.2966-2.75-1.8438-0.69387-0.5472-1.1277-1.0419-1.1562-1.5-0.0143-0.22905 0.0775-0.43818 0.28125-0.65625 0.20378-0.21807 0.51243-0.44163 0.96875-0.65625 0.91264-0.42923 2.3703-0.85191 4.5-1.3125 0.99721-0.55382 1.5899-1.2127 1.875-1.9375 0.28506-0.72477 0.26582-1.5218 0.0625-2.375-0.20332-0.85317-0.59457-1.7797-1.0625-2.7188-0.46793-0.93902-1.0225-1.8927-1.5312-2.875-0.50877-0.98233-0.95541-1.9857-1.2812-2.9688-0.32584-0.98309-0.51836-1.9337-0.4375-2.875 0.0809-0.94129 0.41367-1.8618 1.125-2.7188 0.71133-0.85696 1.8094-1.6762 3.375-2.4062 2.0512-0.93185 3.9463-2.0807 5.7188-3.4062 1.7724-1.3256 3.4263-2.8048 4.9375-4.375s2.8888-3.2404 4.1562-4.9062c1.2675-1.6659 2.4275-3.325 3.4688-4.9375 2.0825-3.225 3.7175-6.1954 5-8.3125 0.33465-0.55244 0.58882-0.85542 0.875-1.2812-15.757-12.864-31.913-19.254-47.312-19.75z" fill="url(#v)"/>
 </g>
</svg>
